<svg xmlns="http://www.w3.org/2000/svg" viewBox="0 0 701 588">
  <g fill="#33cb98">
    <path d="M327.34 0h.47c1.17 1.6 2.94 2.55 4.56 3.63 48.49 31.5 97.12 62.79 145.62 94.28-.31 100.76-.52 201.52-.8 302.28 18.31.25 36.62.42 54.93.64.01 23.39 0 46.79-.01 70.18-18.27.07-36.53-.11-54.79.09.03 15.23-.04 30.46-.18 45.7-22.45-.03-44.9-.03-67.35 0-.09-15.26-.04-30.51-.02-45.77-52.96-.62-105.92-.89-158.87-1.58.1-53.27.03-106.54.08-159.82 18.42-.02 36.83.01 55.25.02.02 30.3-.04 60.6.01 90.9 34.92-.01 69.85-.12 104.77-.01.87-85.42 1.18-170.86 1.78-256.29-28.29-18.18-56.54-36.42-84.81-54.62-67.16 48.43-134.18 97.03-201.37 145.39-.23 117.66-.01 235.32 0 352.98H60.46c-.11-.76-.34-2.27-.45-3.03-.13-104.32.11-208.65-.06-312.98-19.58 12.07-39.19 24.08-58.81 36.06-.22-24.31-.7-48.62-.79-72.93C108.9 157.46 217.24 79.5 325.74 1.76l1.6-1.76Z"/>
    <path d="M153.87 248.92c57.77-41.97 115.52-83.95 173.2-126.05 19.84 12.21 39.32 25.03 59.07 37.39-.01 24.56-.15 49.13-.28 73.69-19.29-12.7-38.61-25.36-57.92-38.04-34.36 26.65-68.58 53.51-102.94 80.16-.2 86.27-.23 172.54-.21 258.81 108.73-.03 217.47-.03 326.21 0 .02-45.09-.22-90.17-.31-135.26 25 .52 50 1.02 75 1.59-.13 62.05.17 124.11-.16 186.15-157.34-.15-314.68-.02-472.02-.06.11-112.79.12-225.59.36-338.38ZM550.37 145.95c50.34 32.59 100.55 65.39 150.63 98.37v76.66c-.99-.31-1.93-.7-2.83-1.19-23.67-15.67-47.32-31.39-71.02-47.03-25.5-15.28-51.3-30.09-76.71-45.51.15-27.1-.04-54.2-.07-81.3Z"/>
    <path d="M586.99 291.2c10.12-.01 20.29 3.24 28.19 9.64 9.67 7.49 16.11 19.06 17.31 31.24 1.61 12.67-2.34 25.99-10.72 35.65-10.98 13.41-30.23 19.29-46.79 14.08-12.44-3.5-22.9-12.88-28.3-24.56-5.08-10.95-5.72-23.89-1.71-35.29 5.82-17.67 23.34-30.67 42.02-30.76Z"/>
  </g>
</svg>
